<svg xmlns="http://www.w3.org/2000/svg" version="1.1" xmlns:xlink="http://www.w3.org/1999/xlink" width="512" height="512" x="0" y="0" viewBox="0 0 124.928 229.898" style="enable-background:new 0 0 512 512" xml:space="preserve" class=""><g><path d="m29.412 174.434-26.864 35.36c-4.177 5.497-3.106 13.339 2.391 17.515a12.44 12.44 0 0 0 7.552 2.548c3.773 0 7.504-1.704 9.963-4.94l29.6-38.96a12.495 12.495 0 0 0 2.534-8.116l-.802-18.06-26.162-25.625z" fill="#f23a2e" opacity="1" data-original="#f23a2e" class=""/><path d="M77.18 41.787a66.113 66.113 0 0 0-1.27 4.66L70.685 57.25l-12.955-9.124-2.254-1.587a24.691 24.691 0 0 1-9.684-4.933c-8.543-1.117-19.909 4.265-24.041 18.572-5.788 20.488-6.592 33.678-2.899 55.735.955 3.87 2.337 6.86 4.009 9.167a12.458 12.458 0 0 0 2.626 3.765l42.665 41.789 9.908 49.228c1.195 5.936 6.41 10.036 12.24 10.036.818 0 1.649-.08 2.48-.248 6.769-1.362 11.15-7.953 9.788-14.721l-10.667-53a12.5 12.5 0 0 0-3.507-6.463l-33.411-32.725c.06-1.686-.034-3.673-.292-6.035-1.79-9.657-1.332-20.35-.228-30.375L35.33 71.394c-4.477-3.495-5.276-9.98-1.782-14.458a10.25 10.25 0 0 1 8.127-3.961 10.2 10.2 0 0 1 6.33 2.178l24.061 18.783 11.473-15.414c1.1-3.374 7.632-21.86 20.133-26.433l.345-.126.374-.012s.115-.004.332-.004c.87 0 4.76.087 9.073 1.478-.1-.64-.253-1.312-.473-2.026-4.191-13.564-21.449-11.24-21.449-11.24-2.076 1.011-3.913 2.494-5.54 4.244-.531 6.964-3.97 13.189-9.153 17.384z" fill="#f23a2e" opacity="1" data-original="#f23a2e" class=""/><path d="M84.133 61.575 72.505 77.196 46.59 56.966a8.005 8.005 0 0 0-11.23 1.385 8.002 8.002 0 0 0 1.384 11.23L69.11 94.845a8.003 8.003 0 0 0 11.34-1.53l15.202-20.422c-4.157-2.58-9-8.195-11.52-11.32zM124.643 47.63c-2.777-13.923-20.182-13.381-20.182-13.381-12.556 4.592-18.884 25.453-18.884 25.453s13.339 16.723 15.28 11.104c.195-.568 6.797-7.015 7.29-7.447 4.392-3.827 18.99-3.213 16.496-15.73zm-11.5 5.948s-4.051-9.568-9.332-13.576c-5.282-4.005 11.357 2.9 9.332 13.576z" fill="#f23a2e" opacity="1" data-original="#f23a2e" class=""/><circle cx="61.613" cy="22.501" r="22.5" transform="rotate(-56.79 61.575 22.492)" fill="#f23a2e" opacity="1" data-original="#f23a2e" class=""/></g></svg>